<svg version="1.1" id="Layer_1" xmlns="http://www.w3.org/2000/svg" xmlns:xlink="http://www.w3.org/1999/xlink" x="0px" y="0px"
	 width="100%" viewBox="0 0 250 250" enable-background="new 0 0 250 250" xml:space="preserve">
<path fill="#00A14B" opacity="1.000000" stroke="none" 
	d="
M251.000000,2.000000 
	C251.000000,84.951424 251.000000,167.902847 251.000000,250.927139 
	C167.764053,250.927139 84.528038,250.927139 1.000000,250.927139 
	C1.000000,168.312668 1.000000,85.624992 1.468657,2.468460 
	C84.958206,1.999736 167.979111,1.999868 251.000000,2.000000 
M54.334747,174.203781 
	C62.777107,179.405197 71.968513,181.836655 81.871170,181.826508 
	C112.202744,181.795425 142.534439,181.852371 172.865982,181.801498 
	C194.444077,181.765305 213.960419,168.441620 220.558731,147.997101 
	C223.004425,140.419235 223.521317,131.977615 223.593140,123.918106 
	C223.853180,94.742661 201.282242,72.271729 172.113861,72.200569 
	C141.949081,72.126976 111.782173,72.011894 81.620560,72.329376 
	C75.572830,72.393036 69.203171,73.418854 63.569340,75.552231 
	C43.871925,83.011124 32.628628,97.736572 30.404219,118.579132 
	C28.005022,141.059418 33.662830,160.606918 54.334747,174.203781 
z"/>
<path fill="#FFFFFF" opacity="1.000000" stroke="none" 
	d="
M251.000000,1.500000 
	C167.979111,1.999868 84.958206,1.999736 1.468657,1.999802 
	C2.500000,1.666667 3.999833,1.042508 5.500024,1.041647 
	C87.333336,0.994668 169.166672,1.000000 251.000000,1.500000 
z"/>
<path fill="#FCFEFC" opacity="1.000000" stroke="none" 
	d="
M54.015900,174.031738 
	C33.662830,160.606918 28.005022,141.059418 30.404219,118.579132 
	C32.628628,97.736572 43.871925,83.011124 63.569340,75.552231 
	C69.203171,73.418854 75.572830,72.393036 81.620560,72.329376 
	C111.782173,72.011894 141.949081,72.126976 172.113861,72.200569 
	C201.282242,72.271729 223.853180,94.742661 223.593140,123.918106 
	C223.521317,131.977615 223.004425,140.419235 220.558731,147.997101 
	C213.960419,168.441620 194.444077,181.765305 172.865982,181.801498 
	C142.534439,181.852371 112.202744,181.795425 81.871170,181.826508 
	C71.968513,181.836655 62.777107,179.405197 54.015900,174.031738 
M132.916397,107.354309 
	C130.978912,108.871819 129.041428,110.389336 126.862160,112.096230 
	C119.557686,104.423569 110.266792,101.808067 100.132973,101.922241 
	C85.647385,102.085442 71.166138,102.604996 56.681335,102.884148 
	C52.314770,102.968307 50.472481,105.234634 50.056492,109.348938 
	C49.481831,115.032524 53.095711,116.482491 57.864281,117.008362 
	C57.864281,122.158653 57.895538,127.135056 57.857479,132.110931 
	C57.787754,141.226196 61.817604,148.104553 69.357475,152.968887 
	C86.597298,164.091202 108.897568,159.878662 120.805878,143.215637 
	C123.075111,140.040329 124.935333,136.572739 127.211960,132.869659 
	C128.343353,134.952255 129.208969,136.530319 130.060730,138.115829 
	C138.991104,154.738937 154.935654,162.022888 173.260590,157.848221 
	C188.598221,154.354111 196.178223,144.847931 196.136581,129.169830 
	C196.125992,125.182358 196.134995,121.194839 196.134995,117.268555 
	C203.190994,115.383308 204.358002,114.021896 203.970734,108.991310 
	C203.492523,102.779686 199.081726,102.860367 194.576263,102.771950 
	C181.423309,102.513840 168.272675,102.137299 155.119705,101.879852 
	C147.507416,101.730850 140.202820,103.030243 132.916397,107.354309 
z"/>
<path fill="#16A64A" opacity="1.000000" stroke="none" 
	d="
M133.230499,107.169861 
	C140.202820,103.030243 147.507416,101.730850 155.119705,101.879852 
	C168.272675,102.137299 181.423309,102.513840 194.576263,102.771950 
	C199.081726,102.860367 203.492523,102.779686 203.970734,108.991310 
	C204.358002,114.021896 203.190994,115.383308 196.134995,117.268555 
	C196.134995,121.194839 196.125992,125.182358 196.136581,129.169830 
	C196.178223,144.847931 188.598221,154.354111 173.260590,157.848221 
	C154.935654,162.022888 138.991104,154.738937 130.060730,138.115829 
	C129.208969,136.530319 128.343353,134.952255 127.211960,132.869659 
	C124.935333,136.572739 123.075111,140.040329 120.805878,143.215637 
	C108.897568,159.878662 86.597298,164.091202 69.357475,152.968887 
	C61.817604,148.104553 57.787754,141.226196 57.857479,132.110931 
	C57.895538,127.135056 57.864281,122.158653 57.864281,117.008362 
	C53.095711,116.482491 49.481831,115.032524 50.056492,109.348938 
	C50.472481,105.234634 52.314770,102.968307 56.681335,102.884148 
	C71.166138,102.604996 85.647385,102.085442 100.132973,101.922241 
	C110.266792,101.808067 119.557686,104.423569 126.862160,112.096230 
	C129.041428,110.389336 130.978912,108.871819 133.230499,107.169861 
M69.234009,118.855911 
	C69.223923,122.187225 69.372032,125.528152 69.170250,128.847809 
	C68.772209,135.396118 72.002991,139.478775 77.604721,142.236282 
	C90.706154,148.685562 104.434319,145.077179 112.681618,132.934753 
	C120.132439,121.964981 117.948944,116.853058 104.557518,116.047012 
	C93.617012,115.388481 82.597893,115.987717 71.615868,116.167023 
	C70.816193,116.180077 70.034813,117.314209 69.234009,118.855911 
M154.617767,115.479385 
	C151.020447,116.016502 147.289566,116.119537 143.852341,117.177048 
	C135.547485,119.732155 135.032288,121.296547 139.107773,128.893738 
	C140.046112,130.642883 141.075516,132.360153 142.226593,133.975510 
	C150.804260,146.012741 166.568863,149.136215 178.739761,140.781281 
	C181.359222,138.983093 183.955292,135.644241 184.488373,132.646301 
	C185.421616,127.398132 184.748688,121.864342 184.748688,115.476807 
	C174.683258,115.476807 165.084183,115.476807 154.617767,115.479385 
z"/>
<path fill="#FBFDFB" opacity="1.000000" stroke="none" 
	d="
M69.239464,118.391510 
	C70.034813,117.314209 70.816193,116.180077 71.615868,116.167023 
	C82.597893,115.987717 93.617012,115.388481 104.557518,116.047012 
	C117.948944,116.853058 120.132439,121.964981 112.681618,132.934753 
	C104.434319,145.077179 90.706154,148.685562 77.604721,142.236282 
	C72.002991,139.478775 68.772209,135.396118 69.170250,128.847809 
	C69.372032,125.528152 69.223923,122.187225 69.239464,118.391510 
z"/>
<path fill="#FCFDFB" opacity="1.000000" stroke="none" 
	d="
M155.051437,115.478096 
	C165.084183,115.476807 174.683258,115.476807 184.748688,115.476807 
	C184.748688,121.864342 185.421616,127.398132 184.488373,132.646301 
	C183.955292,135.644241 181.359222,138.983093 178.739761,140.781281 
	C166.568863,149.136215 150.804260,146.012741 142.226593,133.975510 
	C141.075516,132.360153 140.046112,130.642883 139.107773,128.893738 
	C135.032288,121.296547 135.547485,119.732155 143.852341,117.177048 
	C147.289566,116.119537 151.020447,116.016502 155.051437,115.478096 
z"/>
</svg>